<?xml version="1.0" encoding="utf-8"?>
<!-- Generator: Adobe Illustrator 16.0.0, SVG Export Plug-In . SVG Version: 6.00 Build 0)  -->
<!DOCTYPE svg PUBLIC "-//W3C//DTD SVG 1.1//EN" "http://www.w3.org/Graphics/SVG/1.1/DTD/svg11.dtd">
<svg version="1.1" id="Capa_1" xmlns="http://www.w3.org/2000/svg" xmlns:xlink="http://www.w3.org/1999/xlink" x="0px" y="0px"
	 width="533.333px" height="533.333px" viewBox="0 0 533.333 533.333" enable-background="new 0 0 533.333 533.333"
	 xml:space="preserve">
<g>
	<path fill="#FFFFFF" d="M516.667,200H333.333V16.667C333.333,7.462,325.872,0,316.667,0h-100C207.462,0,200,7.462,200,16.667V200
		H16.667C7.462,200,0,207.462,0,216.667v100c0,9.205,7.462,16.666,16.667,16.666H200v183.334c0,9.205,7.462,16.666,16.667,16.666
		h100c9.205,0,16.668-7.461,16.668-16.666V333.333h183.332c9.205,0,16.668-7.461,16.668-16.666v-100
		C533.333,207.462,525.872,200,516.667,200z"/>
</g>
</svg>
